<svg width="599" height="297" viewBox="0 0 599 297" fill="none" xmlns="http://www.w3.org/2000/svg">
<g filter="url(#filter0_d_1_4)">
<rect x="51.9466" y="182.019" width="309.009" height="106.189" rx="53.0943" fill="#D9D9D9"/>
<ellipse cx="69.1137" cy="248.981" rx="45.1137" ry="39.2264" fill="#D9D9D9"/>
<ellipse cx="176.109" cy="173.698" rx="67.471" ry="52.6981" fill="#D9D9D9"/>
<path d="M114.227 173.698C114.227 195.362 94.0294 212.925 69.1137 212.925C44.1981 212.925 24 195.362 24 173.698C24 152.034 44.1981 134.472 69.1137 134.472C94.0294 134.472 114.227 152.034 114.227 173.698Z" fill="#D9D9D9"/>
<ellipse cx="76.3" cy="210.151" rx="45.1137" ry="39.2264" fill="#D9D9D9"/>
<ellipse cx="257.553" cy="210.151" rx="61.0832" ry="51.9057" fill="#D9D9D9"/>
<ellipse cx="325.424" cy="262.453" rx="48.3076" ry="26.5472" fill="#D9D9D9"/>
<path d="M99.3178 216.75C99.3178 218.844 99.1147 220.953 98.7084 223.078C98.3334 225.172 97.7084 227.203 96.8334 229.172C95.9584 231.109 94.8334 232.938 93.4584 234.656C92.0834 236.344 90.3959 237.844 88.3959 239.156C90.1459 243.625 92.0678 247.922 94.1616 252.047C96.2866 256.141 98.6459 260.094 101.24 263.906L89.5209 264.562L81.5522 241.922C81.6772 245.734 81.8334 249.516 82.0209 253.266C82.2084 257.016 82.4428 260.719 82.7241 264.375H71.2866C71.7866 257.281 72.1459 250.188 72.3647 243.094C72.6147 236 72.7397 228.859 72.7397 221.672C72.7397 217.516 72.7084 213.375 72.6459 209.25C72.5834 205.094 72.4584 200.906 72.2709 196.688C73.9272 196.188 75.5991 195.859 77.2866 195.703C79.0053 195.547 80.4584 195.469 81.6459 195.469C82.4897 195.469 83.5053 195.562 84.6928 195.75C85.9116 195.906 87.1772 196.25 88.4897 196.781C89.8022 197.312 91.0991 198.062 92.3803 199.031C93.6928 200 94.8491 201.281 95.8491 202.875C96.8803 204.438 97.7084 206.359 98.3334 208.641C98.9897 210.891 99.3178 213.594 99.3178 216.75ZM81.4584 234.328C82.5522 234.016 83.5053 233.562 84.3178 232.969C85.1616 232.344 85.8959 231.641 86.5209 230.859C87.1459 230.078 87.6616 229.25 88.0678 228.375C88.5053 227.5 88.8647 226.625 89.1459 225.75C89.7709 223.719 90.1303 221.5 90.2241 219.094C90.2241 219.031 90.2084 218.656 90.1772 217.969C90.1772 217.25 90.0991 216.359 89.9428 215.297C89.7866 214.234 89.5522 213.078 89.2397 211.828C88.9584 210.578 88.5366 209.375 87.9741 208.219C87.4116 207.031 86.6928 205.984 85.8178 205.078C84.9428 204.172 83.8803 203.531 82.6303 203.156C82.2553 208.062 81.9584 212.953 81.7397 217.828C81.5522 222.672 81.4584 227.562 81.4584 232.5V234.328ZM135.88 231.188C135.88 237.469 135.443 242.797 134.568 247.172C133.724 251.547 132.568 255.109 131.099 257.859C129.63 260.578 127.896 262.562 125.896 263.812C123.896 265.031 121.755 265.641 119.474 265.641C117.193 265.641 115.052 265.062 113.052 263.906C111.052 262.719 109.302 260.781 107.802 258.094C106.302 255.406 105.115 251.859 104.24 247.453C103.396 243.047 102.974 237.625 102.974 231.188C102.974 224.719 103.396 219.234 104.24 214.734C105.115 210.203 106.302 206.531 107.802 203.719C109.302 200.875 111.052 198.828 113.052 197.578C115.052 196.297 117.193 195.656 119.474 195.656C121.755 195.656 123.896 196.281 125.896 197.531C127.896 198.75 129.63 200.766 131.099 203.578C132.568 206.391 133.724 210.062 134.568 214.594C135.443 219.094 135.88 224.625 135.88 231.188ZM125.427 231.188C125.427 226.281 125.271 222.141 124.958 218.766C124.646 215.391 124.208 212.656 123.646 210.562C123.115 208.438 122.49 206.906 121.771 205.969C121.052 205.031 120.287 204.562 119.474 204.562C118.63 204.562 117.833 205.047 117.083 206.016C116.365 206.953 115.724 208.484 115.162 210.609C114.63 212.703 114.208 215.453 113.896 218.859C113.583 222.234 113.427 226.344 113.427 231.188C113.427 236 113.583 240.047 113.896 243.328C114.208 246.578 114.63 249.203 115.162 251.203C115.724 253.172 116.365 254.578 117.083 255.422C117.833 256.266 118.63 256.688 119.474 256.688C120.287 256.688 121.052 256.25 121.771 255.375C122.49 254.469 123.115 253.016 123.646 251.016C124.208 248.984 124.646 246.344 124.958 243.094C125.271 239.844 125.427 235.875 125.427 231.188ZM159.693 264.375C159.537 262.219 159.38 260.047 159.224 257.859C159.099 255.672 158.943 253.469 158.755 251.25C157.38 251.156 156.052 251.062 154.771 250.969C153.49 250.875 152.193 250.828 150.88 250.828H150.271C150.115 253.078 149.974 255.297 149.849 257.484C149.724 259.672 149.615 261.844 149.521 264L137.802 263.812C139.74 252.656 141.49 241.531 143.052 230.438C144.615 219.344 145.943 208.156 147.037 196.875L161.146 197.109C162.333 208.266 163.755 219.359 165.412 230.391C167.099 241.391 169.068 252.469 171.318 263.625L159.693 264.375ZM154.208 208.688C153.583 214.438 152.99 220.172 152.427 225.891C151.865 231.609 151.349 237.375 150.88 243.188C151.537 243.25 152.208 243.281 152.896 243.281C153.583 243.281 154.287 243.281 155.005 243.281H158.052C157.521 237.469 156.927 231.703 156.271 225.984C155.615 220.266 154.927 214.5 154.208 208.688ZM207.552 264.094C207.646 259.312 207.755 254.453 207.88 249.516C207.912 247.422 207.943 245.203 207.974 242.859C208.037 240.516 208.083 238.141 208.115 235.734C208.146 233.328 208.162 230.922 208.162 228.516C208.193 226.109 208.208 223.797 208.208 221.578C208.208 220.109 208.208 218.719 208.208 217.406C208.208 216.062 208.177 214.797 208.115 213.609C207.74 215.922 207.255 218.906 206.662 222.562C206.099 226.188 205.505 230.203 204.88 234.609C204.255 238.984 203.63 243.625 203.005 248.531C202.412 253.438 201.88 258.312 201.412 263.156L192.505 262.922C191.755 258.047 191.021 253.25 190.302 248.531C189.615 243.812 188.943 239.328 188.287 235.078C187.662 230.828 187.083 226.891 186.552 223.266C186.021 219.641 185.568 216.484 185.193 213.797V230.109C185.193 233.484 185.208 236.891 185.24 240.328C185.271 243.734 185.302 246.953 185.333 249.984C185.396 253.016 185.474 255.75 185.568 258.188C185.662 260.594 185.787 262.469 185.943 263.812L173.193 264.562C173.662 261.906 174.037 258.922 174.318 255.609C174.63 252.297 174.865 248.828 175.021 245.203C175.208 241.578 175.333 237.891 175.396 234.141C175.458 230.391 175.49 226.75 175.49 223.219C175.49 219.594 175.458 216.203 175.396 213.047C175.365 209.891 175.318 207.125 175.255 204.75C175.162 201.969 175.083 199.422 175.021 197.109C176.021 197.266 177.068 197.406 178.162 197.531C179.255 197.625 180.333 197.703 181.396 197.766C182.458 197.828 183.49 197.875 184.49 197.906C185.49 197.938 186.396 197.953 187.208 197.953C187.74 197.953 188.224 197.953 188.662 197.953C189.13 197.953 189.537 197.938 189.88 197.906C190.255 197.906 190.583 197.891 190.865 197.859C192.365 208.234 193.63 216.984 194.662 224.109C195.693 231.234 196.505 236.656 197.099 240.375C197.443 238 197.771 235.562 198.083 233.062C198.427 230.531 198.74 228.031 199.021 225.562C199.302 223.094 199.552 220.688 199.771 218.344C200.021 215.969 200.24 213.734 200.427 211.641C200.865 206.703 201.255 201.922 201.599 197.297C202.287 197.359 203.037 197.422 203.849 197.484C204.568 197.547 205.412 197.594 206.38 197.625C207.38 197.656 208.474 197.672 209.662 197.672C210.849 197.672 212.13 197.656 213.505 197.625C214.88 197.562 216.318 197.453 217.818 197.297C217.443 208.984 217.255 219.094 217.255 227.625C217.255 233.906 217.318 239.312 217.443 243.844C217.599 248.375 217.755 252.125 217.912 255.094C218.099 258.594 218.333 261.5 218.615 263.812L207.552 264.094ZM243.037 263.344C241.787 263.281 240.537 263.234 239.287 263.203C238.037 263.172 236.787 263.156 235.537 263.156C233.474 263.156 231.412 263.203 229.349 263.297C227.287 263.359 225.224 263.469 223.162 263.625L223.255 253.547C223.974 253.641 224.693 253.719 225.412 253.781C226.13 253.812 226.849 253.859 227.568 253.922C227.755 249.078 227.927 244.266 228.083 239.484C228.271 234.672 228.365 229.859 228.365 225.047C228.365 221.828 228.318 218.656 228.224 215.531C228.13 212.375 228.037 209.203 227.943 206.016C227.13 206.016 226.302 206.031 225.458 206.062C224.615 206.094 223.755 206.141 222.88 206.203L222.974 196.406C225.38 196.562 227.787 196.688 230.193 196.781C232.599 196.844 235.021 196.875 237.458 196.875C238.333 196.875 239.208 196.875 240.083 196.875C240.958 196.875 241.849 196.844 242.755 196.781L242.474 206.109C241.755 206.109 241.037 206.094 240.318 206.062C239.63 206.031 238.927 206.016 238.208 206.016C237.771 211.641 237.458 217.234 237.271 222.797C237.083 228.328 236.99 233.906 236.99 239.531C236.99 244.438 237.083 249.328 237.271 254.203C238.271 254.203 239.287 254.188 240.318 254.156C241.38 254.125 242.443 254.078 243.505 254.016L243.037 263.344ZM266.849 238.922C265.88 238.859 264.896 238.812 263.896 238.781C262.896 238.75 261.896 238.734 260.896 238.734C260.365 238.734 259.818 238.75 259.255 238.781C258.693 238.812 258.146 238.828 257.615 238.828L258.224 264.375C257.505 264.281 256.724 264.219 255.88 264.188C255.068 264.188 254.271 264.188 253.49 264.188C252.708 264.188 251.974 264.188 251.287 264.188C250.63 264.219 250.037 264.25 249.505 264.281C248.912 264.312 248.333 264.344 247.771 264.375C248.052 258.562 248.271 252.812 248.427 247.125C248.615 241.406 248.708 235.641 248.708 229.828C248.708 224.266 248.63 218.75 248.474 213.281C248.349 207.781 248.115 202.25 247.771 196.688C251.458 196.969 254.974 197.109 258.318 197.109C260.443 197.109 262.552 197.062 264.646 196.969C266.771 196.844 269.037 196.688 271.443 196.5V207.281C269.505 206.938 267.583 206.672 265.677 206.484C263.802 206.297 261.927 206.203 260.052 206.203H258.224C257.974 209.703 257.802 213.234 257.708 216.797C257.646 220.359 257.615 224 257.615 227.719V229.547C258.396 229.609 259.177 229.641 259.958 229.641C260.74 229.641 261.537 229.641 262.349 229.641C263.068 229.641 263.802 229.641 264.552 229.641C265.302 229.641 266.068 229.609 266.849 229.547V238.922ZM306.224 196.781C303.724 204.719 301.38 212.734 299.193 220.828C297.037 228.891 294.99 236.688 293.052 244.219V247.125C293.052 248.688 293.068 250.172 293.099 251.578C293.162 252.953 293.224 254.328 293.287 255.703C293.349 257.047 293.427 258.438 293.521 259.875C293.646 261.281 293.787 262.781 293.943 264.375H282.693C282.943 262.438 283.162 260.641 283.349 258.984C283.537 257.297 283.677 255.641 283.771 254.016C283.896 252.391 283.99 250.719 284.052 249C284.115 247.281 284.146 245.406 284.146 243.375C283.271 239.781 282.349 236.047 281.38 232.172C280.443 228.297 279.474 224.406 278.474 220.5C277.474 216.594 276.474 212.719 275.474 208.875C274.474 205 273.49 201.266 272.521 197.672L284.24 196.688C284.365 199.25 284.568 201.969 284.849 204.844C285.162 207.688 285.521 210.594 285.927 213.562C286.333 216.531 286.787 219.531 287.287 222.562C287.787 225.594 288.302 228.562 288.833 231.469C289.427 228.5 290.005 225.484 290.568 222.422C291.162 219.328 291.708 216.281 292.208 213.281C292.708 210.281 293.162 207.359 293.568 204.516C294.005 201.672 294.38 199 294.693 196.5L306.224 196.781Z" fill="#251F48"/>
<ellipse cx="338.599" cy="265.226" rx="47.1099" ry="23.7736" fill="#D9D9D9"/>
<rect x="21.0438" y="43" width="207.116" height="73" rx="36.5" fill="#D9D9D9"/>
<ellipse cx="39.3187" cy="72" rx="39.3187" ry="44" fill="#D9D9D9"/>
<ellipse cx="107.988" cy="39.5" rx="53.7171" ry="39.5" fill="#D9D9D9"/>
<ellipse cx="219.853" cy="94" rx="58.1474" ry="22" fill="#D9D9D9"/>
<ellipse cx="171.12" cy="58.5" rx="32.6733" ry="30.5" fill="#D9D9D9"/>
<rect x="338.044" y="101" width="207.116" height="73" rx="36.5" fill="#D9D9D9"/>
<ellipse cx="356.319" cy="130" rx="39.3187" ry="44" fill="#D9D9D9"/>
<ellipse cx="424.988" cy="97.5" rx="53.7171" ry="39.5" fill="#D9D9D9"/>
<ellipse cx="536.853" cy="152" rx="58.1474" ry="22" fill="#D9D9D9"/>
<ellipse cx="488.12" cy="116.5" rx="32.6733" ry="30.5" fill="#D9D9D9"/>
</g>
<defs>
<filter id="filter0_d_1_4" x="-4" y="0" width="603" height="297" filterUnits="userSpaceOnUse" color-interpolation-filters="sRGB">
<feFlood flood-opacity="0" result="BackgroundImageFix"/>
<feColorMatrix in="SourceAlpha" type="matrix" values="0 0 0 0 0 0 0 0 0 0 0 0 0 0 0 0 0 0 127 0" result="hardAlpha"/>
<feOffset dy="4"/>
<feGaussianBlur stdDeviation="2"/>
<feComposite in2="hardAlpha" operator="out"/>
<feColorMatrix type="matrix" values="0 0 0 0 0 0 0 0 0 0 0 0 0 0 0 0 0 0 0.25 0"/>
<feBlend mode="normal" in2="BackgroundImageFix" result="effect1_dropShadow_1_4"/>
<feBlend mode="normal" in="SourceGraphic" in2="effect1_dropShadow_1_4" result="shape"/>
</filter>
</defs>
</svg>
